<mxfile host="app.diagrams.net" modified="2021-05-25T11:36:50.629Z" agent="5.0 (Windows NT 10.0; Win64; x64) AppleWebKit/537.36 (KHTML, like Gecko) Chrome/90.0.4430.212 Safari/537.36" etag="jyEo1sFad3iK3Ql2vXQK" version="14.7.0" type="github">
  <diagram name="Page-1" id="822b0af5-4adb-64df-f703-e8dfc1f81529">
    <mxGraphModel dx="2893" dy="2160" grid="1" gridSize="10" guides="1" tooltips="1" connect="1" arrows="1" fold="1" page="1" pageScale="1" pageWidth="1100" pageHeight="850" background="none" math="0" shadow="0">
      <root>
        <mxCell id="0" />
        <mxCell id="1" parent="0" />
        <mxCell id="QQD1jeynAQxtIbIDcrcr-1" value="" style="rounded=0;whiteSpace=wrap;html=1;" vertex="1" parent="1">
          <mxGeometry x="1000" y="-84" width="1280" height="1054" as="geometry" />
        </mxCell>
        <mxCell id="QQD1jeynAQxtIbIDcrcr-2" value="&lt;font style=&quot;font-size: 24px&quot;&gt;Основная серверная&lt;br&gt;Расположение: Люблино&lt;/font&gt;" style="text;html=1;strokeColor=none;fillColor=none;align=center;verticalAlign=middle;whiteSpace=wrap;rounded=0;" vertex="1" parent="1">
          <mxGeometry x="1345.5" y="-40" width="454.5" height="40" as="geometry" />
        </mxCell>
        <mxCell id="QQD1jeynAQxtIbIDcrcr-12" style="edgeStyle=orthogonalEdgeStyle;rounded=0;orthogonalLoop=1;jettySize=auto;html=1;" edge="1" parent="1" source="QQD1jeynAQxtIbIDcrcr-3" target="QQD1jeynAQxtIbIDcrcr-5">
          <mxGeometry relative="1" as="geometry">
            <mxPoint x="1729" y="290.02857142857135" as="sourcePoint" />
            <mxPoint x="1566" y="380" as="targetPoint" />
            <Array as="points">
              <mxPoint x="1506" y="168" />
            </Array>
          </mxGeometry>
        </mxCell>
        <mxCell id="QQD1jeynAQxtIbIDcrcr-13" value="10.10.100.10" style="edgeLabel;html=1;align=center;verticalAlign=middle;resizable=0;points=[];" vertex="1" connectable="0" parent="QQD1jeynAQxtIbIDcrcr-12">
          <mxGeometry x="-0.7721" y="1" relative="1" as="geometry">
            <mxPoint x="21" y="-15" as="offset" />
          </mxGeometry>
        </mxCell>
        <mxCell id="QQD1jeynAQxtIbIDcrcr-17" style="edgeStyle=orthogonalEdgeStyle;rounded=0;orthogonalLoop=1;jettySize=auto;html=1;" edge="1" parent="1" source="QQD1jeynAQxtIbIDcrcr-3" target="QQD1jeynAQxtIbIDcrcr-15">
          <mxGeometry relative="1" as="geometry">
            <mxPoint x="1239.5" y="170" as="sourcePoint" />
            <mxPoint x="1100" y="220.5" as="targetPoint" />
            <Array as="points">
              <mxPoint x="1135" y="171" />
            </Array>
          </mxGeometry>
        </mxCell>
        <mxCell id="QQD1jeynAQxtIbIDcrcr-22" value="217.45.85.58" style="edgeLabel;html=1;align=center;verticalAlign=middle;resizable=0;points=[];" vertex="1" connectable="0" parent="QQD1jeynAQxtIbIDcrcr-17">
          <mxGeometry x="-0.7401" y="2" relative="1" as="geometry">
            <mxPoint x="-44" y="-3" as="offset" />
          </mxGeometry>
        </mxCell>
        <mxCell id="QQD1jeynAQxtIbIDcrcr-3" value="FTP-Server" style="verticalLabelPosition=bottom;aspect=fixed;html=1;verticalAlign=top;strokeColor=none;align=center;outlineConnect=0;shape=mxgraph.citrix.ftp_server;" vertex="1" parent="1">
          <mxGeometry x="1284.5" y="120" width="71" height="97" as="geometry" />
        </mxCell>
        <mxCell id="QQD1jeynAQxtIbIDcrcr-29" style="edgeStyle=orthogonalEdgeStyle;rounded=0;orthogonalLoop=1;jettySize=auto;html=1;" edge="1" parent="1" source="QQD1jeynAQxtIbIDcrcr-4" target="QQD1jeynAQxtIbIDcrcr-5">
          <mxGeometry relative="1" as="geometry" />
        </mxCell>
        <mxCell id="QQD1jeynAQxtIbIDcrcr-30" value="10.10.10.10" style="edgeLabel;html=1;align=center;verticalAlign=middle;resizable=0;points=[];" vertex="1" connectable="0" parent="QQD1jeynAQxtIbIDcrcr-29">
          <mxGeometry x="-0.3493" y="3" relative="1" as="geometry">
            <mxPoint x="42" y="-15" as="offset" />
          </mxGeometry>
        </mxCell>
        <mxCell id="QQD1jeynAQxtIbIDcrcr-4" value="Virtual-Platform" style="verticalLabelPosition=bottom;aspect=fixed;html=1;verticalAlign=top;strokeColor=none;align=center;outlineConnect=0;shape=mxgraph.citrix.license_server;" vertex="1" parent="1">
          <mxGeometry x="1735" y="510" width="65" height="85" as="geometry" />
        </mxCell>
        <mxCell id="QQD1jeynAQxtIbIDcrcr-5" value="" style="verticalLabelPosition=bottom;aspect=fixed;html=1;verticalAlign=top;strokeColor=none;align=center;outlineConnect=0;shape=mxgraph.citrix.switch;" vertex="1" parent="1">
          <mxGeometry x="1460" y="440" width="92" height="41.5" as="geometry" />
        </mxCell>
        <mxCell id="QQD1jeynAQxtIbIDcrcr-33" style="edgeStyle=orthogonalEdgeStyle;rounded=0;orthogonalLoop=1;jettySize=auto;html=1;" edge="1" parent="1" source="QQD1jeynAQxtIbIDcrcr-6" target="QQD1jeynAQxtIbIDcrcr-5">
          <mxGeometry relative="1" as="geometry" />
        </mxCell>
        <mxCell id="QQD1jeynAQxtIbIDcrcr-34" value="10.10.10.10" style="edgeLabel;html=1;align=center;verticalAlign=middle;resizable=0;points=[];" vertex="1" connectable="0" parent="QQD1jeynAQxtIbIDcrcr-33">
          <mxGeometry x="-0.5107" y="-1" relative="1" as="geometry">
            <mxPoint x="24" y="-17" as="offset" />
          </mxGeometry>
        </mxCell>
        <mxCell id="QQD1jeynAQxtIbIDcrcr-6" value="Generate-Server" style="verticalLabelPosition=bottom;aspect=fixed;html=1;verticalAlign=top;strokeColor=none;align=center;outlineConnect=0;shape=mxgraph.citrix.command_center;" vertex="1" parent="1">
          <mxGeometry x="1707.75" y="320" width="75.5" height="96" as="geometry" />
        </mxCell>
        <mxCell id="QQD1jeynAQxtIbIDcrcr-32" style="edgeStyle=orthogonalEdgeStyle;rounded=0;orthogonalLoop=1;jettySize=auto;html=1;" edge="1" parent="1" source="QQD1jeynAQxtIbIDcrcr-7" target="QQD1jeynAQxtIbIDcrcr-4">
          <mxGeometry relative="1" as="geometry" />
        </mxCell>
        <mxCell id="QQD1jeynAQxtIbIDcrcr-7" value="Generate-Server" style="verticalLabelPosition=bottom;aspect=fixed;html=1;verticalAlign=top;strokeColor=none;align=center;outlineConnect=0;shape=mxgraph.citrix.command_center;" vertex="1" parent="1">
          <mxGeometry x="1920" y="700" width="75.5" height="96" as="geometry" />
        </mxCell>
        <mxCell id="QQD1jeynAQxtIbIDcrcr-31" style="edgeStyle=orthogonalEdgeStyle;rounded=0;orthogonalLoop=1;jettySize=auto;html=1;" edge="1" parent="1" source="QQD1jeynAQxtIbIDcrcr-8" target="QQD1jeynAQxtIbIDcrcr-4">
          <mxGeometry relative="1" as="geometry" />
        </mxCell>
        <mxCell id="QQD1jeynAQxtIbIDcrcr-8" value="Virtual-Generate-Server" style="verticalLabelPosition=bottom;aspect=fixed;html=1;verticalAlign=top;strokeColor=none;align=center;outlineConnect=0;shape=mxgraph.citrix.command_center;" vertex="1" parent="1">
          <mxGeometry x="1570" y="700" width="75.5" height="96" as="geometry" />
        </mxCell>
        <mxCell id="QQD1jeynAQxtIbIDcrcr-27" style="edgeStyle=orthogonalEdgeStyle;rounded=0;orthogonalLoop=1;jettySize=auto;html=1;" edge="1" parent="1" source="QQD1jeynAQxtIbIDcrcr-9" target="QQD1jeynAQxtIbIDcrcr-5">
          <mxGeometry relative="1" as="geometry">
            <Array as="points">
              <mxPoint x="1506" y="190" />
            </Array>
          </mxGeometry>
        </mxCell>
        <mxCell id="QQD1jeynAQxtIbIDcrcr-28" value="10.10.10.10" style="edgeLabel;html=1;align=center;verticalAlign=middle;resizable=0;points=[];" vertex="1" connectable="0" parent="QQD1jeynAQxtIbIDcrcr-27">
          <mxGeometry x="-0.7701" y="-2" relative="1" as="geometry">
            <mxPoint x="2" y="-8" as="offset" />
          </mxGeometry>
        </mxCell>
        <mxCell id="QQD1jeynAQxtIbIDcrcr-9" value="SFTP-Server" style="verticalLabelPosition=bottom;aspect=fixed;html=1;verticalAlign=top;strokeColor=none;align=center;outlineConnect=0;shape=mxgraph.citrix.ftp_server;" vertex="1" parent="1">
          <mxGeometry x="1710" y="120" width="71" height="97" as="geometry" />
        </mxCell>
        <mxCell id="QQD1jeynAQxtIbIDcrcr-16" style="edgeStyle=orthogonalEdgeStyle;rounded=0;orthogonalLoop=1;jettySize=auto;html=1;" edge="1" parent="1" source="QQD1jeynAQxtIbIDcrcr-10" target="QQD1jeynAQxtIbIDcrcr-15">
          <mxGeometry relative="1" as="geometry">
            <Array as="points">
              <mxPoint x="1140" y="355" />
            </Array>
          </mxGeometry>
        </mxCell>
        <mxCell id="QQD1jeynAQxtIbIDcrcr-25" value="175.58.85.54" style="edgeLabel;html=1;align=center;verticalAlign=middle;resizable=0;points=[];" vertex="1" connectable="0" parent="QQD1jeynAQxtIbIDcrcr-16">
          <mxGeometry x="-0.8259" y="-2" relative="1" as="geometry">
            <mxPoint x="-51" y="2" as="offset" />
          </mxGeometry>
        </mxCell>
        <mxCell id="QQD1jeynAQxtIbIDcrcr-19" style="edgeStyle=orthogonalEdgeStyle;rounded=0;orthogonalLoop=1;jettySize=auto;html=1;" edge="1" parent="1" source="QQD1jeynAQxtIbIDcrcr-10" target="QQD1jeynAQxtIbIDcrcr-5">
          <mxGeometry relative="1" as="geometry">
            <Array as="points">
              <mxPoint x="1506" y="370" />
            </Array>
          </mxGeometry>
        </mxCell>
        <mxCell id="QQD1jeynAQxtIbIDcrcr-20" value="10.10.10.10" style="edgeLabel;html=1;align=center;verticalAlign=middle;resizable=0;points=[];" vertex="1" connectable="0" parent="QQD1jeynAQxtIbIDcrcr-19">
          <mxGeometry x="-0.5026" y="-1" relative="1" as="geometry">
            <mxPoint x="1" y="-10" as="offset" />
          </mxGeometry>
        </mxCell>
        <mxCell id="QQD1jeynAQxtIbIDcrcr-10" value="SQL-Server" style="verticalLabelPosition=bottom;aspect=fixed;html=1;verticalAlign=top;strokeColor=none;align=center;outlineConnect=0;shape=mxgraph.citrix.database_server;" vertex="1" parent="1">
          <mxGeometry x="1284.5" y="310" width="80" height="90" as="geometry" />
        </mxCell>
        <mxCell id="QQD1jeynAQxtIbIDcrcr-15" value="" style="verticalLabelPosition=bottom;aspect=fixed;html=1;verticalAlign=top;strokeColor=none;align=center;outlineConnect=0;shape=mxgraph.citrix.cloud;" vertex="1" parent="1">
          <mxGeometry x="1100" y="220" width="95" height="62" as="geometry" />
        </mxCell>
      </root>
    </mxGraphModel>
  </diagram>
</mxfile>
